<svg width="512" height="512" viewBox="0 0 512 512" fill="none" xmlns="http://www.w3.org/2000/svg">
  <rect width="512" height="512" rx="112" fill="#0F172A"/>
  <path
    d="M321.189 138C370.773 138 411 178.227 411 227.811V324.838C411 391.757 356.757 446 289.838 446C222.919 446 168.676 391.757 168.676 324.838V205.108C168.676 156.273 208.273 116.676 257.108 116.676C305.943 116.676 345.541 156.273 345.541 205.108V309.973C345.541 343.414 318.414 370.541 284.973 370.541C251.532 370.541 224.405 343.414 224.405 309.973V222.595H263.865V309.973C263.865 321.622 273.324 331.081 284.973 331.081C296.622 331.081 306.081 321.622 306.081 309.973V205.108C306.081 178.064 284.152 156.135 257.108 156.135C230.064 156.135 208.135 178.064 208.135 205.108V324.838C208.135 369.965 244.711 406.541 289.838 406.541C334.965 406.541 371.541 369.965 371.541 324.838V227.811C371.541 200.021 348.979 177.459 321.189 177.459H308.784V138H321.189Z"
    fill="#2DD4BF"
  />
</svg>
